<?xml version="1.0" encoding="utf-8" ?>
<svg baseProfile="full" height="500" version="1.1" width="500" xmlns="http://www.w3.org/2000/svg" xmlns:ev="http://www.w3.org/2001/xml-events" xmlns:xlink="http://www.w3.org/1999/xlink"><defs /><path d="M 124 136 L 106 141 L 87 150 L 74 159 L 56 177 L 46 192 L 35 218 L 31 240 L 33 271 L 42 298 L 54 318 L 74 339 L 104 356 L 125 362 L 149 364 L 176 360 L 191 355 L 211 344 L 234 323 L 242 312 L 232 305 L 232 194 L 234 191 L 244 189 L 226 166 L 211 154 L 186 141 L 163 135 Z" fill="#d10f06" /><path d="M 356 195 L 356 204 L 394 249 L 355 295 L 355 302 L 379 303 L 406 270 L 410 268 L 439 303 L 463 303 L 463 295 L 424 249 L 463 203 L 463 195 L 440 195 L 409 231 L 379 195 Z" fill="white" /><path d="M 238 195 L 237 303 L 259 303 L 260 260 L 281 260 L 317 303 L 340 303 L 340 294 L 302 249 L 340 204 L 340 195 L 317 195 L 281 238 L 260 238 L 260 196 Z" fill="white" /><path d="M 97 195 L 97 303 L 119 303 L 120 231 L 157 274 L 194 231 L 195 302 L 217 303 L 217 195 L 194 195 L 157 239 L 121 196 Z" fill="white" /></svg>